<?xml version="1.0" standalone="no"?>
<!DOCTYPE svg PUBLIC "-//W3C//DTD SVG 20010904//EN"
 "http://www.w3.org/TR/2001/REC-SVG-20010904/DTD/svg10.dtd">
<svg version="1.0" xmlns="http://www.w3.org/2000/svg"
 width="300.000000pt" height="300.000000pt" viewBox="0 0 300.000000 300.000000"
 preserveAspectRatio="xMidYMid meet">
<metadata>
Created by potrace 1.14, written by Peter Selinger 2001-2017
</metadata>
<g transform="translate(0.000000,300.000000) scale(0.100000,-0.100000)"
fill="#000000" stroke="none">
<path d="M1410 2865 c-73 -46 -107 -51 -200 -30 -46 11 -89 15 -106 11 -16 -4
-51 -31 -79 -59 -75 -78 -78 -80 -181 -88 -110 -8 -121 -15 -166 -103 -40 -80
-63 -99 -144 -126 -103 -34 -122 -57 -139 -170 -11 -67 -30 -97 -88 -134 -59
-38 -92 -71 -101 -102 -4 -11 -2 -51 3 -88 12 -82 3 -116 -47 -175 -72 -85
-77 -114 -36 -201 17 -34 27 -72 27 -100 0 -28 -10 -66 -27 -100 -34 -72 -33
-108 4 -156 83 -108 85 -112 81 -183 -9 -155 -7 -161 96 -227 62 -39 77 -65
93 -161 14 -85 39 -113 123 -138 85 -25 113 -48 151 -122 49 -99 59 -106 171
-113 102 -7 105 -8 180 -86 61 -64 89 -72 171 -51 97 26 130 23 204 -23 83
-51 115 -52 195 -4 75 46 116 51 203 29 42 -11 80 -15 97 -11 16 4 55 34 88
67 70 71 87 79 174 79 97 0 123 16 169 107 43 83 67 103 152 128 83 25 110 55
127 148 8 43 21 87 29 98 7 11 42 39 76 63 86 60 90 70 83 191 l-6 100 56 70
c66 82 71 112 32 197 -32 69 -32 127 0 196 39 84 34 118 -25 192 -28 35 -53
74 -56 87 -4 13 -3 59 0 102 9 100 0 119 -85 178 -73 49 -92 78 -103 153 -15
106 -30 124 -126 155 -91 29 -108 44 -153 129 -48 92 -70 106 -172 106 -82 0
-115 16 -178 86 -58 65 -92 74 -178 50 -87 -24 -113 -20 -194 24 -91 50 -123
51 -195 5z m360 -84 c235 -53 426 -151 598 -307 l76 -69 -44 -6 c-25 -4 -449
-7 -943 -8 -746 -2 -897 0 -890 11 16 27 120 117 198 173 168 120 379 200 605
229 77 10 317 -4 400 -23z m173 -411 c23 0 36 -4 32 -10 -3 -5 1 -10 10 -10 9
0 14 4 10 9 -3 6 90 10 233 10 l239 0 39 -45 c109 -127 213 -339 255 -522 27
-114 38 -387 18 -423 -7 -13 -13 -27 -12 -30 1 -3 -211 -9 -472 -13 -464 -7
-474 -7 -502 13 -15 11 -63 29 -106 40 -122 33 -143 44 -150 80 -4 17 -25 49
-47 71 -36 36 -44 39 -57 28 -10 -8 -18 -9 -20 -3 -10 28 -29 58 -38 59 -5 0
-11 -14 -13 -33 -4 -40 -27 -69 -36 -46 -5 14 -36 22 -36 9 0 -16 47 -60 60
-56 11 4 10 0 -3 -12 -9 -10 -21 -15 -26 -11 -20 12 -22 -17 -2 -31 12 -8 21
-21 21 -29 0 -15 -28 -20 -160 -33 -68 -6 -75 -9 -78 -29 l-3 -23 -222 0
c-122 0 -320 -1 -439 -3 l-218 -2 -6 44 c-11 75 4 329 25 421 45 197 142 397
261 540 l38 45 683 -2 c376 -2 701 -3 722 -3z m-553 -786 c0 -8 -4 -14 -10
-14 -5 0 -10 9 -10 21 0 11 5 17 10 14 6 -3 10 -13 10 -21z m50 -38 c0 -3 -4
-8 -10 -11 -5 -3 -10 -1 -10 4 0 6 5 11 10 11 6 0 10 -2 10 -4z m81 -81 c18
-40 18 -40 -4 -52 -16 -8 -26 -8 -35 0 -10 7 -16 8 -20 0 -10 -15 -72 -4 -72
14 0 10 6 12 20 8 11 -4 20 -2 20 4 0 6 -6 11 -12 11 -8 0 -5 7 6 15 11 8 17
17 14 21 -4 3 -2 19 4 35 l10 30 26 -23 c13 -13 33 -41 43 -63z m-225 -123
c-10 -2 -22 0 -28 6 -6 6 0 7 19 4 21 -5 23 -7 9 -10z m192 1 c-21 -2 -55 -2
-75 0 -21 2 -4 4 37 4 41 0 58 -2 38 -4z m85 0 c-7 -2 -19 -2 -25 0 -7 3 -2 5
12 5 14 0 19 -2 13 -5z m829 -44 c7 -9 28 -21 46 -27 28 -10 32 -9 32 8 0 10
-6 20 -12 23 -7 3 37 3 97 1 61 -3 131 -5 158 -5 46 -1 47 -1 46 -32 -2 -64
-12 -82 -44 -80 l-30 2 28 -11 c26 -11 36 -32 20 -41 -7 -4 -91 19 -135 38
-11 4 -18 3 -18 -4 0 -6 8 -11 18 -11 10 0 26 -6 36 -13 18 -13 18 -14 2 -20
-10 -4 -22 -5 -26 -2 -5 3 -42 8 -82 11 l-73 5 35 -16 c19 -9 44 -14 55 -11
31 8 50 -7 30 -24 -13 -11 -21 -11 -36 -2 -21 13 -64 15 -93 3 -17 -6 -14 -10
18 -29 20 -12 36 -17 36 -11 0 6 5 7 10 4 6 -4 7 -12 3 -18 -3 -7 3 -4 15 6
19 18 48 15 37 -3 -6 -11 19 -20 56 -20 19 0 29 5 29 15 0 8 9 15 20 15 31 0
25 -36 -25 -138 l-44 -92 -758 0 c-417 0 -914 -2 -1105 -4 l-347 -5 -26 47
c-35 62 -112 250 -120 294 l-7 34 38 -4 c47 -6 38 14 -11 24 -26 5 -35 11 -35
26 0 17 6 19 65 16 45 -2 68 2 77 11 11 12 10 13 -3 8 -9 -3 -21 -1 -26 4 -5
5 -31 11 -57 14 -27 2 -51 6 -53 8 -5 6 429 17 654 17 l203 0 0 -100 c0 -72
-4 -102 -12 -104 -61 -15 -132 -43 -136 -53 -2 -8 11 -6 40 6 48 21 98 34 98
26 0 -3 -18 -18 -41 -34 l-40 -30 23 -13 c27 -15 189 -49 201 -41 4 2 14 0 21
-6 7 -6 20 -9 29 -5 8 3 18 1 22 -5 4 -7 -9 -11 -37 -11 -24 0 -54 -3 -68 -6
-20 -4 -22 -3 -10 5 12 9 10 11 -10 11 -14 0 -58 9 -98 20 -39 11 -83 20 -97
20 -16 0 -25 6 -25 15 0 8 -5 15 -11 15 -7 0 -6 -8 3 -22 10 -14 39 -30 79
-42 81 -24 78 -23 114 -45 17 -11 40 -20 52 -20 12 -1 25 -5 28 -11 3 -5 11
-10 16 -10 6 0 7 5 3 12 -5 8 0 9 17 4 13 -5 39 -10 57 -13 17 -3 32 -9 32
-15 0 -5 6 -6 12 -1 7 4 67 6 133 4 221 -6 233 -6 222 1 -12 8 4 12 31 9 7 -1
11 4 10 11 -2 7 6 13 17 14 11 0 27 3 35 7 8 3 34 11 57 17 46 12 87 57 77 84
-9 22 -57 46 -91 45 -26 0 -25 -1 11 -15 41 -15 66 -31 66 -44 0 -4 -15 -15
-34 -25 -19 -11 -33 -21 -31 -24 2 -4 -7 -6 -18 -7 -12 0 -40 -4 -62 -8 -29
-5 -36 -5 -25 3 8 6 24 11 35 11 30 1 69 34 62 54 -4 9 -12 16 -18 16 -8 0 -8
-4 0 -13 12 -15 -3 -37 -25 -37 -11 0 -28 36 -25 54 1 5 -4 4 -12 -2 -11 -9
-13 -7 -12 11 2 17 8 22 28 22 15 -1 27 3 27 7 0 4 -10 8 -23 8 -20 0 -22 4
-19 38 4 36 6 38 38 38 42 0 53 10 28 28 -12 9 -21 11 -25 4 -3 -5 -9 -2 -13
8 -3 9 -4 19 -1 22 3 3 5 0 5 -7 0 -7 4 -10 9 -7 4 3 7 35 5 71 l-4 66 285 -3
c248 -3 286 -5 297 -19z m-1012 7 c0 -2 -7 -6 -15 -10 -8 -3 -15 -1 -15 4 0 6
7 10 15 10 8 0 15 -2 15 -4z m50 -21 c0 -3 -8 -5 -18 -5 -10 0 -19 7 -19 14 0
11 5 13 19 5 10 -5 18 -12 18 -14z m320 -14 c0 -6 -5 -13 -12 -17 -6 -4 -8 -3
-4 4 3 5 0 13 -6 15 -8 3 -6 6 5 6 9 1 17 -3 17 -8z m-546 -11 c23 0 34 -6 41
-22 13 -29 72 -38 81 -13 5 12 20 15 74 14 63 -2 68 -4 85 -32 l17 -29 -83 7
c-46 4 -106 11 -133 16 -27 5 -80 9 -117 9 -66 0 -69 1 -69 23 0 32 10 40 44
33 16 -3 43 -6 60 -6z m516 -16 c0 -2 -9 -4 -21 -4 -11 0 -18 4 -14 10 5 8 35
3 35 -6z m28 -43 c5 -32 -12 -41 -80 -41 -64 0 -73 7 -58 45 9 25 13 26 72 23
58 -3 63 -5 66 -27z m-618 -15 c0 -3 -4 -8 -10 -11 -5 -3 -10 -1 -10 4 0 6 5
11 10 11 6 0 10 -2 10 -4z m125 -56 c-10 -11 -21 -18 -23 -15 -6 6 31 44 37
39 2 -2 -4 -13 -14 -24z m50 -50 c55 -6 114 -12 130 -14 17 -3 88 -8 158 -11
98 -6 130 -11 134 -22 8 -19 -8 -34 -49 -43 l-33 -8 33 -1 c25 -1 32 -5 32
-21 0 -11 -7 -20 -16 -20 -8 0 -12 5 -9 10 12 20 -28 24 -43 4 -9 -13 -16 -15
-19 -7 -2 7 -12 9 -21 6 -15 -6 -16 -5 -2 12 14 16 13 17 -8 11 -23 -8 -32 8
-9 17 6 3 -9 6 -35 6 -27 1 -48 -3 -48 -7 0 -4 -19 -7 -42 -6 -24 1 -47 -1
-53 -5 -5 -4 -21 -2 -35 5 -15 8 -19 14 -10 14 9 0 21 -5 28 -12 8 -8 12 -8
12 -1 0 6 16 11 36 11 19 0 38 3 41 6 4 3 -20 6 -53 7 -32 0 -70 2 -83 5 -16
3 -22 0 -18 -8 3 -9 -6 -13 -29 -13 -20 0 -34 5 -34 12 0 7 7 10 17 6 11 -4
14 -3 9 5 -9 14 -56 16 -56 3 0 -14 -53 -8 -57 6 -3 7 4 10 19 7 21 -4 20 -3
-2 5 -14 5 -37 12 -52 15 -20 5 -28 13 -28 28 0 19 4 20 48 14 26 -4 92 -11
147 -16z m1392 -16 c-3 -3 -12 -4 -19 -1 -8 3 -5 6 6 6 11 1 17 -2 13 -5z
m-1367 -124 c0 -5 -5 -10 -11 -10 -5 0 -7 5 -4 10 3 6 8 10 11 10 2 0 4 -4 4
-10z m54 -15 c4 -12 -3 -15 -32 -14 -30 2 -32 3 -9 6 15 2 27 9 27 14 0 14 7
11 14 -6z m-90 -3 c2 -4 -11 -6 -30 -4 -19 2 -34 6 -34 8 0 8 59 4 64 -4z
m139 1 c-7 -2 -19 -2 -25 0 -7 3 -2 5 12 5 14 0 19 -2 13 -5z m50 -7 c4 -10 1
-13 -8 -9 -8 3 -12 9 -9 14 7 12 11 11 17 -5z m44 -12 c-3 -3 -12 -4 -19 -1
-8 3 -5 6 6 6 11 1 17 -2 13 -5z m40 0 c-3 -3 -12 -4 -19 -1 -8 3 -5 6 6 6 11
1 17 -2 13 -5z m116 -1 c-7 -2 -19 -2 -25 0 -7 3 -2 5 12 5 14 0 19 -2 13 -5z
m-350 -10 c-7 -2 -19 -2 -25 0 -7 3 -2 5 12 5 14 0 19 -2 13 -5z m290 0 c-7
-2 -21 -2 -30 0 -10 3 -4 5 12 5 17 0 24 -2 18 -5z m-160 -10 c-7 -2 -21 -2
-30 0 -10 3 -4 5 12 5 17 0 24 -2 18 -5z m234 1 c-3 -3 -12 -4 -19 -1 -8 3 -5
6 6 6 11 1 17 -2 13 -5z m873 -99 c0 -29 -125 -176 -230 -268 -64 -57 -100
-80 -130 -82 -8 0 -14 -6 -13 -12 3 -16 -107 -83 -207 -126 -155 -66 -264 -89
-450 -94 -183 -6 -284 7 -431 53 -92 28 -234 92 -225 101 3 3 37 6 75 7 42 1
75 6 83 14 11 11 -7 12 -96 8 -104 -6 -112 -5 -152 19 -23 14 -49 31 -56 38
-7 6 -32 25 -54 40 -54 37 -168 155 -228 237 l-48 65 93 5 c52 3 538 6 1082 6
779 1 987 -1 987 -11z"/>
<path d="M1600 2700 c0 -5 7 -10 15 -10 8 0 15 5 15 10 0 6 -7 10 -15 10 -8 0
-15 -4 -15 -10z"/>
<path d="M628 2433 c7 -3 16 -2 19 1 4 3 -2 6 -13 5 -11 0 -14 -3 -6 -6z"/>
<path d="M2178 2313 c6 -2 18 -2 25 0 6 3 1 5 -13 5 -14 0 -19 -2 -12 -5z"/>
<path d="M1581 2243 c-13 -12 -28 -47 -41 -97 -23 -91 -24 -96 -10 -96 8 0
110 189 110 205 0 12 -39 4 -59 -12z"/>
<path d="M933 2180 c-78 -16 -120 -55 -108 -103 7 -27 58 -87 74 -87 16 0 13
16 -4 30 -22 18 -18 63 8 87 30 29 93 44 210 52 80 5 95 4 81 -6 -10 -7 -27
-13 -38 -14 -12 0 -16 -3 -10 -5 12 -5 -198 -424 -241 -480 -92 -121 -245
-124 -245 -5 0 22 -5 43 -11 47 -8 5 -10 -11 -7 -56 4 -57 8 -66 41 -96 30
-28 45 -34 82 -34 98 0 168 65 259 239 l57 111 101 0 100 0 -6 -35 c-9 -47 5
-44 33 5 36 65 28 70 -98 70 l-110 0 30 68 c43 96 87 160 122 179 47 24 141
29 172 9 21 -14 25 -24 25 -61 0 -56 13 -57 40 -5 25 49 25 76 1 90 -23 12
-495 12 -558 0z"/>
<path d="M1731 2060 c-65 -10 -88 -51 -55 -98 17 -25 36 -30 28 -7 -18 47 27
85 99 85 l31 0 -26 -27 c-15 -16 -57 -82 -93 -148 -37 -66 -89 -153 -115 -192
-26 -40 -44 -73 -40 -73 5 0 12 5 15 10 3 6 18 10 34 10 24 0 31 9 71 91 25
50 48 93 52 95 4 2 23 -27 44 -66 46 -89 91 -130 141 -130 31 0 44 8 85 51 60
64 64 89 5 31 -55 -54 -95 -57 -139 -10 -36 39 -88 126 -88 149 0 30 213 157
327 194 40 13 56 14 72 5 12 -6 21 -7 21 -2 0 39 -95 44 -163 7 -57 -30 -224
-140 -254 -168 -35 -31 -28 -8 25 79 33 56 57 83 79 94 18 8 33 18 33 23 0 9
-128 7 -189 -3z"/>
<path d="M1455 1500 c3 -5 8 -10 11 -10 2 0 4 5 4 10 0 6 -5 10 -11 10 -5 0
-7 -4 -4 -10z"/>
<path d="M1842 1280 c0 -14 2 -19 5 -12 2 6 2 18 0 25 -3 6 -5 1 -5 -13z"/>
<path d="M410 1260 c0 -5 5 -10 10 -10 6 0 10 5 10 10 0 6 -4 10 -10 10 -5 0
-10 -4 -10 -10z"/>
<path d="M2275 1250 c-4 -6 5 -10 20 -10 15 0 24 4 20 10 -3 6 -12 10 -20 10
-8 0 -17 -4 -20 -10z"/>
<path d="M1980 1230 c0 -5 5 -10 11 -10 5 0 7 5 4 10 -3 6 -8 10 -11 10 -2 0
-4 -4 -4 -10z"/>
<path d="M2518 1233 c7 -3 16 -2 19 1 4 3 -2 6 -13 5 -11 0 -14 -3 -6 -6z"/>
<path d="M280 1220 c0 -5 5 -10 10 -10 6 0 10 5 10 10 0 6 -4 10 -10 10 -5 0
-10 -4 -10 -10z"/>
<path d="M315 1219 c-4 -6 -5 -13 -2 -16 7 -7 27 6 27 18 0 12 -17 12 -25 -2z"/>
<path d="M2600 1220 c0 -5 7 -10 16 -10 8 0 12 5 9 10 -3 6 -10 10 -16 10 -5
0 -9 -4 -9 -10z"/>
<path d="M2077 1214 c-8 -8 1 -24 12 -24 4 0 8 7 8 15 0 16 -9 20 -20 9z"/>
<path d="M2480 1211 c0 -4 11 -13 25 -19 14 -6 25 -8 25 -3 0 4 -11 13 -25 19
-14 6 -25 8 -25 3z"/>
<path d="M413 1185 c0 -8 6 -15 14 -15 7 0 13 7 13 15 0 8 -6 15 -13 15 -8 0
-14 -7 -14 -15z"/>
<path d="M2265 1191 c-3 -5 0 -13 7 -17 6 -4 13 -3 15 3 2 5 16 8 31 6 21 -4
24 -2 12 6 -19 13 -57 14 -65 2z"/>
<path d="M2460 1050 c0 -5 5 -10 11 -10 5 0 7 5 4 10 -3 6 -8 10 -11 10 -2 0
-4 -4 -4 -10z"/>
<path d="M2298 1005 c-2 -19 0 -35 4 -35 4 0 8 16 8 35 0 19 -2 35 -4 35 -2 0
-6 -16 -8 -35z"/>
<path d="M1078 913 c6 -2 18 -2 25 0 6 3 1 5 -13 5 -14 0 -19 -2 -12 -5z"/>
<path d="M1175 870 c3 -5 8 -10 11 -10 2 0 4 5 4 10 0 6 -5 10 -11 10 -5 0 -7
-4 -4 -10z"/>
<path d="M1078 853 c7 -3 16 -2 19 1 4 3 -2 6 -13 5 -11 0 -14 -3 -6 -6z"/>
<path d="M1210 851 c0 -6 4 -13 10 -16 6 -3 7 1 4 9 -7 18 -14 21 -14 7z"/>
<path d="M1506 838 c3 -4 11 -5 19 -1 21 7 19 12 -4 10 -11 0 -18 -5 -15 -9z"/>
<path d="M1050 410 c0 -5 7 -10 15 -10 8 0 15 5 15 10 0 6 -7 10 -15 10 -8 0
-15 -4 -15 -10z"/>
<path d="M1798 413 c7 -3 16 -2 19 1 4 3 -2 6 -13 5 -11 0 -14 -3 -6 -6z"/>
<path d="M1325 390 c-3 -5 -2 -10 4 -10 5 0 13 5 16 10 3 6 2 10 -4 10 -5 0
-13 -4 -16 -10z"/>
<path d="M1528 393 c6 -2 18 -2 25 0 6 3 1 5 -13 5 -14 0 -19 -2 -12 -5z"/>
<path d="M1394 351 c5 -8 56 -3 56 5 0 2 -14 4 -31 4 -16 0 -28 -4 -25 -9z"/>
</g>
</svg>
